<?xml version="1.0" encoding="UTF-8"?><svg xmlns="http://www.w3.org/2000/svg" id="Layer_2" data-name="Layer 2" viewBox="0 0 480.07 374.47"><defs><style> .cls-1 { fill: #276041; stroke-width: 0px; } </style></defs><g id="Layer_1-2" data-name="Layer 1"><g><path class="cls-1" d="M414.39,283.21c-2.85,30.44-16.3,54.49-44.26,68.29-27.94,13.78-54.85,9.81-80.33-7.98-10.29,10.26-22.23,17.92-35.85,22.92-24.08,8.84-48.86,9.77-73.86,5.75-30.52-4.91-58.79-15.64-83.3-34.93-13.29-10.46-24.84-22.61-28.71-39.68-1.43-6.34-4.04-8.52-10.11-10.09-32.1-8.31-49.26-30.81-55.61-62.05-5.43-26.73-1.64-52.44,12.95-75.9,11.13-17.9,27.09-28.05,48.68-28.21.64,0,1.28-.22,1.89-.33,2.28-60.37,70.78-99.6,124.3-60.76,5.26-6.81,9.99-14.12,15.86-20.34C239.09,4.88,279.64-7.86,325.96,4.75c46.78,12.73,75.07,44.8,85.95,92.03,1.11,4.84,1.13,9.93,2.1,14.81.29,1.43,1.96,3.41,3.28,3.68,39.63,7.97,58.67,39.68,62.12,73.19,2.28,22.16-1.32,43.16-12.16,62.67-8.7,15.66-21.11,26.96-39.22,30.65-4.36.89-8.9.95-13.65,1.43ZM191.07,186.13c-.12,33.66,26.75,61.03,60.08,61.2,34.31.17,61.89-26.68,62.02-60.38.13-33.93-27.17-61.53-60.94-61.6-33.68-.07-61.04,27.11-61.16,60.78ZM72.85,181.03c-.22,39.11,26.95,66.42,60.98,66.51,15.49.04,28.98-5.18,40.62-15.3,4.97-4.32,4.97-7.56,0-11.93-2.5-2.2-5.08-4.3-7.64-6.44q-7.8-6.52-16.28-1.1c-12.64,8.09-29.36,5.89-39.64-5.21-10.12-10.93-11.02-27.53-2.14-39.48,10.5-14.12,29.62-16.98,43.87-6.55,5.72,4.18,7.2,4.18,12.69-.1,3.41-2.66,6.88-5.26,10.19-8.06,4.85-4.1,4.96-7.33.14-11.53-19.46-16.96-41.61-21.56-65.4-11.49-24.18,10.23-36.33,29.6-37.41,50.68ZM347.96,287.93c7.64-6.86,14.44-12.72,20.96-18.85,17.35-16.31,5.85-39.67-10.61-45.72-16.47-6.06-36.79,1.7-45.03,17.36-1.5,2.86-.66,4.81,1.52,6.48,2.77,2.12,5.79,3.94,8.54,6.08,3.63,2.83,6.48,2.4,9.34-1.24,1.92-2.45,4.18-4.81,6.73-6.58,5.14-3.57,12.25-2.67,15.38,1.52,2.69,3.61,1.72,7.35-3.88,12.36-10.3,9.22-20.64,18.39-31.23,27.27-4.61,3.86-6.83,8.2-6.53,14.24.34,6.88.96,7.84,7.83,7.87,14.66.05,29.32.01,43.98.03q13.25.01,13.05-13.18c-.1-6.44-1.16-7.56-7.58-7.62-7.12-.06-14.24-.01-22.48-.01Z"/><path class="cls-1" d="M251.74,217.48c-17.33-.11-30.83-13.79-30.76-31.18.07-17.32,14.21-31.18,31.64-31.01,16.93.16,30.72,14.42,30.57,31.62-.15,17.26-13.95,30.67-31.45,30.57Z"/></g></g></svg>