<?xml version="1.0" encoding="UTF-8"?><svg xmlns="http://www.w3.org/2000/svg" id="Layer_2" data-name="Layer 2" viewBox="0 0 334.87 383.41"><defs><style> .cls-1 { fill: #276041; stroke-width: 0px; } </style></defs><g id="Layer_1-2" data-name="Layer 1"><g><path class="cls-1" d="M273.13,383.41c-2.35-.65-4.71-1.27-7.06-1.94-11.92-3.4-21.58-10.09-29.05-19.96-.52-.69-1.04-1.37-1.72-2.26-1.05.56-1.98,1.11-2.96,1.57-11.28,5.22-22.36,10.99-33.91,15.53-23.21,9.12-46.49,8.16-69.61-.98C60.75,348.46,19.48,298.76,3.98,227.69c-2.87-13.15-3.58-26.96-3.72-40.49C-.19,143.41.08,99.61.09,55.81c0-8.35,2.38-10.32,10.58-10.86,16.28-1.07,32.53-2.57,48.78-4.05,4.49-.41,8.38,1.74,9.17,5.68.89,4.4-1.44,8.33-6.18,9.04-9.6,1.43-19.26,2.52-28.93,3.51-5.81.59-11.68.72-17.88,1.08-.09,1.01-.26,2.07-.26,3.13,0,43.55-.24,87.1.11,130.64.59,73.18,47.44,140.26,115.83,166.07,7.98,3.01,16.36,5.24,24.75,6.81,14.45,2.71,28.31-.86,41.56-6.32,9.76-4.02,19.11-9.03,28.55-13.77.98-.49,2.02-2.26,1.91-3.31-.63-6.03-1.61-12.03-2.49-18.19-2.14,1.35-4.62,2.92-7.12,4.47-11.06,6.85-22.82,12.18-35.18,16.25-14.15,4.66-28.02,3.57-41.67-1.81-57.82-22.78-92.99-64.67-104.99-125.6-2.1-10.68-2.62-21.79-2.73-32.72-.34-32.94-.13-65.88-.11-98.82,0-6.86,2.19-9.17,8.89-9.9,29.05-3.16,57.76-8.1,85.11-18.7,10.98-4.25,21.44-9.92,31.96-15.28,3.72-1.9,6.84-2.28,10.47-.08,25.29,15.35,53.12,23.64,81.96,28.85,12.24,2.21,24.64,3.59,36.97,5.3,4.68.65,7.15,3.56,7.15,8.83.01,35.06.07,70.12-.06,105.19-.02,6.46-.62,12.95-1.36,19.38-2.51,21.95-9.63,42.39-20.57,61.55-.48.85-.92,1.72-1.35,2.53,6.76.33,13.38.66,20.52,1.01,5.38-9.7,9.73-20.52,13.2-31.68,5.56-17.85,8.26-36.17,8.3-54.85.09-41.8.03-83.6.03-125.4,0-1.1,0-2.2,0-3.52-5.98-.36-11.67-.64-17.35-1.06-42.77-3.19-83.45-13.67-120.97-35-2.71-1.54-5.56-2.96-7.92-4.94-2.75-2.31-4.68-1.53-7.51.04-11.1,6.14-22.31,12.1-33.7,17.67-5.99,2.93-11.88-1.61-10.91-7.89.55-3.54,3.26-4.97,6.12-6.45,10.39-5.38,20.72-10.85,31.02-16.4,2.29-1.24,4.32-2.95,6.45-4.47,3.09-2.2,6.25-2.42,9.36-.19,25.75,18.44,54.69,29.37,85.34,36.25,20.87,4.68,42.02,6.99,63.4,7.21,9.92.1,11.65,1.82,11.65,11.88,0,43.17-.14,86.35.05,129.52.14,32.86-6.8,63.99-21.62,93.35-.33.65-.56,1.36-.9,2.18,10.67,6.54,18.7,15.3,23.37,26.95,12.96,32.28-7.16,68.08-41.46,73.8-.72.12-1.4.47-2.09.71h-14.23ZM88.09,290.74c1.08-29.4,2.11-57.81,3.2-86.22.13-3.36-1.44-5.56-3.95-7.57-8.86-7.09-14.98-16.25-15.41-27.59-.73-19.44-.27-38.92-.28-58.38,0-3.39,1.84-5.64,4.93-6.79,5.09-1.89,9.97,1.79,10.01,7.64.08,12.35,0,24.7.04,37.06.01,3.75.77,7.25,4.37,9.32,6.42,3.69,13.57-.44,13.64-8.01.11-12.48.02-24.95.04-37.43,0-5.56,3.11-9.2,7.68-9.11,4.46.09,7.32,3.53,7.34,9.01.03,11.73,0,23.46.04,35.18,0,1.73.1,3.52.53,5.18,1.29,4.98,6.1,7.54,11.03,6.02,4.51-1.38,6.4-4.07,6.43-9.69.07-12.35-.05-24.7.06-37.06.06-6.65,5.68-10.51,11.04-7.74,3.47,1.79,4.22,4.97,4.22,8.53-.01,17.09.08,34.19-.04,51.28-.09,12.5-4.6,23.28-14.3,31.24-4.52,3.71-5.85,7.71-5.57,13.27.94,18.56,1.5,37.14,2.21,55.71.75,19.69,1.47,39.39,2.33,59.08.05,1.19.96,2.9,1.95,3.4,16.79,8.47,33.69,8.75,50.55.17.95-.49,1.98-1.9,2.03-2.94,1.88-38.12,3.5-76.25,5.56-114.36.32-5.98-.78-9.89-5.74-13.88-11.13-8.95-13.97-21.49-14.13-35.43-.26-21.39,8.13-38.07,24.55-51.22,9.09-7.28,22.51-7.85,31.56-.6,4.93,3.95,9.57,8.45,13.53,13.36,11.12,13.77,13.11,30.04,11.62,47.02-1.11,12.67-7.01,22.72-17.44,29.97-2.23,1.55-2.55,3.37-2.42,5.74,1.12,21.42,2.17,42.85,3.29,64.27.32,6.26.77,12.5,1.21,19.62,1.22-1.38,1.8-2,2.34-2.65,23.53-28.36,35.02-61.08,35.18-97.8.13-30.94.03-61.88.02-92.83,0-1.31-.11-2.62-.15-3.62-11.09-1.76-21.7-3.22-32.23-5.17-28.67-5.32-56.39-13.5-81.96-27.98-1-.57-2.92-.48-3.96.1-25.69,14.51-53.53,22.71-82.34,27.98-10.38,1.9-20.83,3.37-31.44,5.06-.06.93-.18,1.9-.18,2.88,0,32.31-.04,64.63.05,96.94.06,22.94,5.5,44.63,15.72,65.13,6.02,12.09,13.51,23.18,23.26,33.87ZM207.75,317.82c.29.22.59.45.88.67,6-4.36,11.95-8.76,18.01-13.04,1.94-1.37,2.64-2.91,2.48-5.33-.66-10.2-1.09-20.42-1.62-30.63-1.07-20.8-1.91-41.61-3.35-62.38-.62-9,2.08-15.7,9.56-20.79,5.72-3.88,9.12-9.58,10.12-16.41.52-3.55.18-7.22.34-10.83.73-16.1-6.47-28.27-18.75-37.92-3.89-3.06-9.4-3.27-13.15-.1-3.6,3.05-7.13,6.29-10.13,9.92-8.91,10.76-9.86,23.6-8.82,36.8.64,8.06,4.42,14.45,11.04,19.07,6.39,4.46,9.23,10.51,8.79,18.26-.56,9.71-.99,19.43-1.46,29.14-.91,18.68-1.83,37.36-2.71,56.05-.44,9.17-.81,18.34-1.21,27.51ZM241.49,328.95c-.13,21.45,17.7,39.46,39.08,39.47,21.44.01,39-17.48,39.11-38.96.11-21.47-17.69-39.52-39.02-39.55-21.19-.03-39.04,17.75-39.17,39.04ZM88.34,173.6c1.93,5.38,5.1,8.97,8.97,12.03,6.55,5.18,9.44,11.94,9.11,20.27-1.26,32.16-2.45,64.32-3.61,96.48-.04,1.02.15,2.51.82,3.01,5.9,4.46,11.93,8.74,17.97,13.11,0-7.34.2-13.94-.03-20.52-1.08-30.67-2.23-61.33-3.48-91.99-.35-8.68,2.81-15.47,9.67-20.72,3.8-2.91,6.7-6.55,8.4-11.75-9.19,2.66-17.07.59-23.99-5.21-6.95,5.95-14.66,7.67-23.83,5.29Z"/><path class="cls-1" d="M93.69,33.62c4.18.02,7.31,3.13,7.37,7.31.06,4.27-3.3,7.66-7.53,7.61-3.99-.05-7.44-3.45-7.48-7.39-.05-4.18,3.37-7.55,7.64-7.52Z"/><path class="cls-1" d="M274.47,330.86c6.07-6.12,11.63-11.82,17.31-17.4,2.87-2.82,6.12-3.19,9.22-1.34,3.04,1.82,4.26,4.62,3.48,7.97-.37,1.59-1.39,3.22-2.55,4.41-7.06,7.23-14.21,14.38-21.42,21.46-3.97,3.89-7.79,3.85-11.8-.01-3.77-3.63-7.49-7.34-11.11-11.13-3.31-3.47-3.33-7.99-.23-11,3.1-3.01,7.51-2.85,11,.54,1.97,1.91,3.77,3.99,6.11,6.49Z"/></g></g></svg>