<?xml version="1.0" encoding="UTF-8"?><svg xmlns="http://www.w3.org/2000/svg" id="Layer_2" data-name="Layer 2" viewBox="0 0 1160.81 279.01"><defs><style> .cls-1 { letter-spacing: .25em; } .cls-2 { letter-spacing: .23em; } .cls-3 { letter-spacing: .23em; } .cls-4 { fill: #ffcf1c; font-family: Rubik-Medium, Rubik; font-size: 56px; font-weight: 500; } .cls-5 { fill: #276041; stroke-width: 0px; } .cls-6 { letter-spacing: .25em; } .cls-7 { letter-spacing: .25em; } .cls-8 { letter-spacing: .25em; } .cls-9 { letter-spacing: .22em; } </style></defs><g id="Layer_1-2" data-name="Layer 1"><g><path class="cls-5" d="M0,143.43V0c3.06,0,7.65.06,13.77.18,6.12.12,10.71.18,13.77.18l32.69,53.81c22.28,36.61,33.79,55.52,34.53,56.75l2.02,3.31.18-55.65v-12.67c0-4.28.03-8.2.09-11.75.06-3.55.09-6.98.09-10.28v-8.81c0-2.57.03-4.8.09-6.7.06-1.9.09-3.33.09-4.32v-1.65c0-.24.06-.52.18-.83.12-.3.18-.52.18-.64,0-.61,3.67-.92,11.02-.92h11.2l.37,23.51c.37,12.85.55,36.73.55,71.62v48.3h-34.16l-7.16-11.94c-4.53-7.59-14.88-24.61-31.04-51.05-16.04-26.08-24.12-39.12-24.24-39.12-.61,0-.92,17.81-.92,53.44l-.18,48.67H0Z"/><path class="cls-5" d="M136.45,50.69l-.37-49.77h24.06v42.97c0,27.18.3,43.52.92,49.03,2.2,16.9,10.22,26.88,24.06,29.93,3.43.86,6.92,1.29,10.47,1.29,6.61,0,12.52-1.44,17.72-4.32,5.2-2.88,9.09-6.89,11.66-12.03,2.2-4.53,3.58-10.01,4.13-16.44s.83-21.76.83-46V.92h23.87v45.73c0,24.49-.22,40.4-.64,47.75-.43,7.35-1.44,13.53-3.03,18.55-4.16,12.37-11.88,21.3-23.14,26.81-5.02,2.45-9.77,4.1-14.23,4.96-4.47.86-10.38,1.29-17.72,1.29-12.73,0-23.14-1.9-31.22-5.69-9.31-4.28-16.22-11.08-20.75-20.38-3.19-6.36-5.02-12.42-5.51-18.18-.49-5.75-.86-22.77-1.1-51.05Z"/><path class="cls-5" d="M269.96,19.28V0h117.72v19.28h-46.28l-.55,2.39c-.25,1.47-.37,7.84-.37,19.1,0,8.94.09,24.61.28,47.01s.28,36.73.28,42.97c0,6.61-.06,10.1-.18,10.47-.25.61-1.01.98-2.3,1.1-1.29.12-4.68.18-10.19.18h-11.94V19.28h-46.46Z"/><path class="cls-5" d="M403.65,18.36V0c7.96,0,19.8.06,35.54.18,15.73.12,27.52.18,35.35.18l6.24,2.39c14.2,5.02,22.77,14.02,25.71,27,.73,3.31,1.1,7.9,1.1,13.77,0,4.41-.25,7.84-.73,10.28-.61,3.43-1.93,7.01-3.95,10.74-2.02,3.74-4.2,6.64-6.52,8.72-1.96,1.84-4.65,3.7-8.08,5.6-3.43,1.9-5.82,2.85-7.16,2.85-1.22,0-1.84.25-1.84.73,0,.37,2.02,4.26,6.06,11.66,4.04,7.41,8.72,15.79,14.05,25.16,5.33,9.37,9.52,16.5,12.58,21.4l1.47,2.75h-27.73c-14.94-25.95-26.08-45.48-33.42-58.58h-24.61v58.58h-24.06c0-8.57.06-21.46.18-38.66.12-17.2.18-30.09.18-38.66l32.51-.37c16.04-.24,25.62-.46,28.74-.64,3.12-.18,5.6-.7,7.44-1.56,7.22-3.67,10.83-10.53,10.83-20.57v-2.2c-.37-5.75-1.99-10.5-4.87-14.23-2.88-3.73-6.83-6.15-11.84-7.25-2.82-.61-14.02-.92-33.61-.92h-29.57Z"/><path class="cls-5" d="M529.82,144.16V0h24.06v144.16h-24.06Z"/><path class="cls-5" d="M600.34,6.98l1.65-6.98h22.96l11.75,47.38c7.83,31.71,12,47.93,12.49,48.67.49.61,3.37-9.79,8.63-31.22,5.14-19.83,9.24-35.93,12.3-48.3l4.22-16.16h23.14l5.69,26.08c2.2,10.16,5.57,25.59,10.1,46.28,4.53,20.69,8.23,37.53,11.11,50.5,2.88,12.98,4.32,19.59,4.32,19.83,0,.49-4.22.73-12.67.73h-12.67l-9.55-46.83c-6.24-31.1-9.49-46.77-9.73-47.01-.12-.12-.52,1.1-1.19,3.67-.67,2.57-1.78,6.98-3.31,13.22-1.53,6.24-3.37,13.74-5.51,22.5-2.14,8.75-4.87,20.05-8.17,33.88l-5.14,21.12-11.57-.37-11.57-.18-11.75-46.83c-1.22-5.02-2.45-9.92-3.67-14.69-1.22-4.77-2.33-9.03-3.31-12.76-.98-3.73-1.87-7.01-2.66-9.83-.8-2.81-1.41-4.96-1.84-6.43-.43-1.47-.64-2.14-.64-2.02-.25.49-3.34,15.86-9.27,46.1-5.94,30.24-8.91,45.67-8.91,46.28,0,.37-4.29.55-12.85.55s-12.86-.3-12.86-.92c0-1.1,2.39-11.94,7.16-32.51,1.84-8.08,6.67-29.5,14.51-64.28,1.1-5.02,2.36-10.62,3.76-16.8,1.41-6.18,2.54-11.26,3.4-15.24.86-3.98,1.41-6.46,1.65-7.44Z"/><path class="cls-5" d="M747.62,20.02V.92h112.94v19.47l-11.02,13.77c-48,59.26-72.17,89.19-72.54,89.8-.25.25,1.1.43,4.04.55,4.04.25,11.39.37,22.04.37h15.43l42.06-.37v18.55l-19.65.55c-12.61.37-34.53.55-65.75.55-19.71,0-29.69-.12-29.93-.37-.12-.12-.18-1.96-.18-5.51v-4.22l.37-9.73,40.4-49.95,42.05-52.16,1.65-2.2h-81.91Z"/><path class="cls-5" d="M876.72,50.69l-.37-49.77h24.06v42.97c0,27.18.3,43.52.92,49.03,2.2,16.9,10.22,26.88,24.06,29.93,3.43.86,6.92,1.29,10.47,1.29,6.61,0,12.52-1.44,17.72-4.32,5.2-2.88,9.09-6.89,11.66-12.03,2.2-4.53,3.58-10.01,4.13-16.44s.83-21.76.83-46V.92h23.87v45.73c0,24.49-.21,40.4-.64,47.75-.43,7.35-1.44,13.53-3.03,18.55-4.16,12.37-11.88,21.3-23.14,26.81-5.02,2.45-9.76,4.1-14.23,4.96-4.47.86-10.38,1.29-17.72,1.29-12.74,0-23.14-1.9-31.22-5.69-9.31-4.28-16.22-11.08-20.75-20.38-3.18-6.36-5.02-12.42-5.51-18.18-.49-5.75-.86-22.77-1.1-51.05Z"/><path class="cls-5" d="M1009.5,18.36V0c7.96,0,19.8.06,35.54.18,15.73.12,27.52.18,35.35.18l6.24,2.39c14.2,5.02,22.77,14.02,25.71,27,.73,3.31,1.1,7.9,1.1,13.77,0,4.41-.25,7.84-.73,10.28-.61,3.43-1.93,7.01-3.95,10.74-2.02,3.74-4.2,6.64-6.52,8.72-1.96,1.84-4.65,3.7-8.08,5.6-3.43,1.9-5.82,2.85-7.16,2.85-1.22,0-1.84.25-1.84.73,0,.37,2.02,4.26,6.06,11.66,4.04,7.41,8.72,15.79,14.05,25.16,5.33,9.37,9.52,16.5,12.58,21.4l1.47,2.75h-27.73c-14.94-25.95-26.08-45.48-33.42-58.58h-24.61v58.58h-24.06c0-8.57.06-21.46.18-38.66.12-17.2.18-30.09.18-38.66l32.51-.37c16.04-.24,25.62-.46,28.74-.64,3.12-.18,5.6-.7,7.44-1.56,7.22-3.67,10.83-10.53,10.83-20.57v-2.2c-.37-5.75-1.99-10.5-4.87-14.23-2.88-3.73-6.83-6.15-11.85-7.25-2.82-.61-14.02-.92-33.61-.92h-29.57Z"/><path class="cls-5" d="M1135.66,144.16V0h24.06v144.16h-24.06Z"/></g><text class="cls-4" transform="translate(0 251.41) scale(.99 1)"><tspan class="cls-7" x="0" y="0">b</tspan><tspan class="cls-8" x="48.22" y="0">e</tspan><tspan class="cls-7" x="94.3" y="0">tte</tspan><tspan class="cls-3" x="216.33" y="0">r</tspan><tspan class="cls-7" x="252.39" y="0" xml:space="preserve"> nutrition,b</tspan><tspan class="cls-6" x="719.76" y="0">e</tspan><tspan class="cls-1" x="765.85" y="0">tte</tspan><tspan class="cls-2" x="887.87" y="0">r</tspan><tspan class="cls-9" x="923.93" y="0"></tspan><tspan class="cls-7" x="949.19" y="0">yields</tspan></text></g></svg>