<?xml version="1.0" encoding="UTF-8"?><svg xmlns="http://www.w3.org/2000/svg" id="Layer_2" data-name="Layer 2" viewBox="0 0 507.27 540.45"><defs><style> .cls-1 { fill: #276041; stroke: #276041; stroke-miterlimit: 10; stroke-width: 2px; } </style></defs><g id="Layer_1-2" data-name="Layer 1"><g><path class="cls-1" d="M261.92,1c16.89,8,34.15,15.3,50.59,24.13,50.84,27.33,101.23,55.49,152.07,82.83,28.12,15.12,41.5,38.49,41.58,69.83.16,61.85.15,123.71,0,185.56-.08,31.35-13.48,54.9-41.58,69.86-24.04,12.8-47.79,26.16-74.36,40.74,12.24,4.24,21.87,8.23,31.85,10.83,8.89,2.31,14.22,6.87,11.42,15.99-2.71,8.82-9.93,8.45-17.58,5.9-18.16-6.03-36.33-12.06-54.71-17.37-10.56-3.05-13.46-9.11-10.28-19,6.12-19.06,11.62-38.36,18.82-57,1.81-4.69,9.07-7.28,13.83-10.84,2.45,5.53,7.52,11.42,6.82,16.52-1.53,11.14-6,21.87-9.92,34.95,28.35-15.71,54.8-29.77,80.62-44.9,16.44-9.63,23.41-25.62,23.48-44.23.22-63.2.26-126.4-.01-189.6-.09-21.46-9.87-37.44-29.11-47.83-59.46-32.09-118.82-64.35-178.06-96.83-16.9-9.27-33.11-9.16-49.62.52-8.88,5.2-17.6,11.09-27.16,14.52-4.44,1.59-10.71-1.94-16.15-3.15,1.98-5.24,2.45-13.13,6.19-15.25,16.98-9.62,34.88-17.62,52.45-26.2,6.28,0,12.55,0,18.83,0Z"/><path class="cls-1" d="M265.38,296.96c58.88,0,116.64,0,174.4,0,4.03,0,8.69-1.26,11.95.33,4.49,2.19,7.92,6.53,11.81,9.96-4.06,3.7-7.91,7.71-12.31,10.95-1.46,1.07-4.36.19-6.6.19-127.27,0-254.54,0-381.81,0-3.14,0-7.18,1.12-9.21-.4-3.77-2.82-8.36-6.99-8.8-11.02-.32-2.94,4.95-7.43,8.68-9.56,2.72-1.55,7-.43,10.58-.43,55.57,0,111.14,0,166.71,0,3.52,0,7.04,0,11.45,0v-36.34c-46.4-8.13-77.44-48.55-74.5-96.48.56-9.18,5-12.73,13.69-12.45,24.29.79,45.19,9.61,62.88,27.81,2.49-6.06,4.42-10.91,6.48-15.7,17.61-40.96,64.93-69.37,109.29-65.97,8.33.64,11.68,4.53,12.17,12.69,3.23,53.22-35.27,104.54-87.35,115.53-5.98,1.26-12.45.17-19.51.17v70.74ZM348.29,121.86c-37.68.41-68.78,22.89-80.26,58.55-1.92,5.96-2.06,15.73,1.47,19.3,3.64,3.68,13.31,3.91,19.4,2.22,34.14-9.46,57.97-41.88,59.39-80.07ZM192.99,176.34c-2.26,24.86,16.48,52.84,39.44,59.87,8.68,2.66,10.69-1.71,10.46-8.45-.79-23.87-24.71-48.32-49.91-51.42Z"/><path class="cls-1" d="M117.59,66.18c-12.66-4.24-23.06-8.01-33.65-11.16-7.56-2.25-12.2-6.42-10.14-14.52,2.28-8.94,9.68-8.5,16.36-6.5,19.26,5.77,38.31,12.24,57.55,18.08,8.19,2.49,10.89,8.15,8.77,15.4-6.03,20.58-12.29,41.13-19.68,61.23-1.47,3.99-8.4,5.98-12.81,8.89-2.53-4.98-7.76-10.38-7.07-14.86,1.79-11.64,6.19-22.87,10.3-36.79-29.34,16.43-56.52,31.01-83.03,46.73-15.03,8.91-21.52,23.92-21.6,40.98-.29,64.1-.32,128.21,0,192.32.1,19.84,9.05,35.43,26.67,45.12,61.18,33.63,122.45,67.09,183.74,100.51,14.04,7.66,28.33,7.39,42.4-.07,9.88-5.24,19.23-11.81,29.59-15.7,4.92-1.85,14.16-.94,17.04,2.46,5.13,6.04.81,12.35-6.13,16.05-11.45,6.11-22.55,12.94-34.26,18.49-19.91,9.42-40.05,8.72-59.37-1.78-61.34-33.35-122.71-66.64-183.71-100.6C13.49,416.5.95,394.32,1,365.25c.1-63.66.05-127.31.03-190.97,0-28.51,12.39-49.95,37.06-63.97,25.63-14.57,51.54-28.64,79.5-44.13Z"/><path class="cls-1" d="M327.73,382.94c-26.83,0-53.66-.09-80.48.05-8.03.04-14.85-1.56-14.63-11.2.2-8.79,6.64-10.33,14.15-10.32,55,.1,109.99.1,164.99,0,7.58-.01,13.9,1.78,13.98,10.5.09,9.64-6.87,11.06-14.83,11.02-27.72-.14-55.44-.05-83.17-.06Z"/><path class="cls-1" d="M146.21,361.53c16.52,0,33.05.12,49.57-.05,7.97-.09,14.9,1.41,14.74,11.05-.14,8.68-6.45,10.5-14.02,10.47-33.49-.12-66.99-.12-100.48,0-7.54.03-13.87-1.7-14.05-10.42-.2-9.68,6.69-11.19,14.67-11.1,16.52.17,33.05.05,49.57.05Z"/><path class="cls-1" d="M198.37,426.11c10.7,0,21.56-1.06,32.04.48,4.59.67,8.39,6.65,12.56,10.22-4.17,3.56-8.21,10-12.55,10.21-22.25,1.04-44.6,1.05-66.84-.04-4.1-.2-7.88-7.08-11.81-10.88,3.94-3.33,7.61-9.03,11.88-9.53,11.44-1.34,23.14-.46,34.73-.46Z"/><path class="cls-1" d="M295.89,447.4c-7.12,0-14.55,1.22-21.25-.47-3.9-.98-9.17-6.6-9.19-10.15-.01-3.52,5.57-9.83,9.09-10.11,14.6-1.17,29.39-1.17,43.99-.07,3.72.28,10.26,6.8,9.78,9.37-.8,4.28-5.67,9.92-9.85,10.98-7.11,1.8-15.01.5-22.57.5,0-.02,0-.03,0-.05Z"/></g></g></svg>