<?xml version="1.0" encoding="UTF-8"?><svg xmlns="http://www.w3.org/2000/svg" id="Layer_2" data-name="Layer 2" viewBox="0 0 176.62 220.77"><defs><style> .cls-1 { fill: #276041; stroke-width: 0px; } </style></defs><g id="Layer_1-2" data-name="Layer 1"><path class="cls-1" d="M86.02,163.96c-.03-5.06-.47-5.53-5.43-5.53-10.65-.01-21.29,0-31.94-.02-.99,0-1.99-.13-3.47-.24,3.04-5.27,5.84-10.13,8.81-15.27,3.98,2.29,7.58,4.53,11.34,6.43,1.15.58,3.23.81,4.03.16.74-.61.42-2.61.41-4,0-.54-.41-1.09-.67-1.62-5.96-12.47-12-24.9-17.83-37.43-1.09-2.35-2.42-2.98-4.83-2.78-14.25,1.19-28.51,2.23-42.76,3.48-1.28.11-2.46,1.34-3.68,2.05.8,1.28,1.31,2.98,2.45,3.75,3.51,2.36,7.25,4.36,11.01,6.57-3.01,5.39-5.98,10.48-8.73,15.68-2.49,4.71-2.49,9.48.24,14.19,8.11,14.01,15.97,28.16,24.35,42.01,5.44,8.99,13.72,13.78,24.45,13.79,8.87,0,17.74,0,26.61,0,5.55,0,5.9-.32,5.87-5.74-.07-11.83-.16-23.65-.24-35.48ZM28.48,178.49c-1.15-1.88-2.36-3.76-3.47-5.69-4.85-8.39-9.57-16.86-14.54-25.17-2.25-3.76-2.31-7.27-.16-11,3.65-6.33,7.25-12.69,10.95-19.15-2.74-1.65-5.33-3.22-8.9-5.37,5.24-.46,9.41-.84,13.57-1.17,6.13-.49,12.25-1.03,18.39-1.35.89-.05,2.3.71,2.68,1.49,4.51,9.1,8.86,18.28,13.24,27.45.13.27.05.65.09,1.37-2.89-1.63-5.52-3.11-8.57-4.83-7.44,14.65-17.42,27.7-23.29,43.43ZM80.28,198.9c-10.69,0-21.24.8-31.62-.22-10.42-1.02-16.07-11.01-12.77-21.06,1.42-4.31,3.98-8.26,6.17-12.29.35-.64,1.49-1.2,2.26-1.2,11.8-.08,23.6-.05,35.95-.05v34.82Z"/><path class="cls-1" d="M159.58,103.46c-3.01-5.19-3.35-5.29-8.43-2.33-10.11,5.89-20.21,11.8-30.32,17.7-4.38,2.56-4.49,2.93-1.92,7.42,5.75,10.04,11.5,20.07,17.7,30.88-5.6,0-10.43-.1-15.26.04-2.24.06-2.88-.8-2.81-2.9.12-3.43.21-6.88-.06-10.29-.1-1.28-1.26-2.47-1.93-3.71-1.23.67-2.81,1.07-3.61,2.08-2.2,2.77-4.07,5.8-6.08,8.72-6.73,9.84-13.47,19.67-20.18,29.48,8.7,12.73,17.19,25.27,25.85,37.68.85,1.22,2.73,1.72,4.14,2.55.63-1.5,1.72-2.96,1.81-4.5.26-4.07.09-8.16.09-12.5,6.34,0,12.01.11,17.68-.03,5.62-.13,9.88-2.63,12.73-7.62,7.62-13.34,15.4-26.6,23.03-39.94,5.86-10.24,6.35-20.54.15-30.92-4.3-7.21-8.38-14.55-12.59-21.81ZM146.24,189.81c-3.25,6.35-7.62,9-14.68,8.45-5.98-.47-12.03-.1-18.58-.1v10.08c-1.1-1.26-1.73-1.86-2.21-2.55-5.28-7.7-10.58-15.38-15.76-23.15-.57-.85-.91-2.58-.44-3.29,5.7-8.55,11.56-17,17.4-25.46.1-.15.37-.17.87-.39v9.46c16.6-.62,32.93,1.25,49.46-1.3-5.4,9.4-11.14,18.61-16.07,28.24ZM154.25,156.22q-11.16.77-16.66-8.83c-4.46-7.77-8.93-15.54-13.68-23.79,10.28-5.99,20.23-11.79,30.57-17.82,5.03,8.99,10.46,17.46,14.65,26.51,5.42,11.7-1.99,23.04-14.88,23.93Z"/><path class="cls-1" d="M46.37,94.2c7.64-1.63,11.01,1.46,13.33,8.16,1.79,5.15,4.64,9.92,7.3,15.43,15.33-26.57,30.31-52.52,45.41-78.68,4.12,2.4,7.82,4.71,11.69,6.7,1.04.53,3.01.56,3.79-.1.71-.6.89-2.67.42-3.68-6.3-13.48-12.72-26.91-19.26-40.28C108.6.83,106.94,0,105.84,0c-3.42,0-6.84.4-10.25.66-11.2.87-22.4,1.68-33.58,2.73-1.31.12-2.5,1.6-3.74,2.45.85,1.15,1.47,2.65,2.59,3.39,3.54,2.31,7.26,4.33,11.07,6.56-15.36,26.66-30.56,53.04-46.19,80.15,7.48-.57,14.22-.37,20.62-1.74ZM70.86,8.35c5.24-.48,9.43-.89,13.63-1.23,5.89-.47,11.78-.96,17.68-1.25,1.05-.05,2.75.51,3.14,1.29,4.68,9.38,9.16,18.86,14.18,29.31-3.62-1.99-6.31-3.47-9.21-5.07-14.23,24.67-28.33,49.11-42.81,74.21-2.48-5.13-4.86-9.68-6.88-14.39-1.09-2.56-2.45-3.58-5.32-3.27-6.09.66-12.23.97-19.21,1.49,14.69-25.49,29.08-50.47,43.61-75.69-2.75-1.69-5.32-3.26-8.81-5.4Z"/></g></svg>