<?xml version="1.0" encoding="UTF-8"?><svg xmlns="http://www.w3.org/2000/svg" id="Layer_2" data-name="Layer 2" viewBox="0 0 615.05 776.44"><defs><style> .cls-1 { fill: #276041; stroke-width: 0px; } </style></defs><g id="Layer_1-2" data-name="Layer 1"><g><path class="cls-1" d="M614.37,498.35c.23.23.45.47.68.7-.23-.23-.45-.47-.68-.7Z"/><g><path class="cls-1" d="M36.98,310.75c4.41,1.41,8.87,2.71,13.23,4.28,2.52.91,3.06-.4,3.83-2.32,2.12-5.33,4.03-10.83,6.88-15.76,1.91-3.32,5.29-5.79,8.01-8.64,4.31-2.73,8.62-5.46,12.93-8.19.68,0,1.37,0,2.05.01.48,1.51.85,3.06,1.46,4.51,2.34,5.53,2.28,5.39-2.81,8.87-1.86,1.27-3.2,3.3-4.77,4.98-4.39,3.49-7.3,8.02-8.96,13.31-.82,2.6.25,3.69,2.69,2.61,9.23-4.09,18.98-3.75,28.71-3.67,3.89.76,7.81,1.39,11.65,2.33,1.3.32,2.4,1.4,3.6,2.14-.84,1-1.51,2.22-2.54,2.95-5.97,4.25-11.08,9.32-15.15,15.43-10.99,16.5-9.8,33.98,3.41,49.78q6.01,7.19-.92,13.63c-18.36,17.06-17.5,47.42,2.05,63,4.37,3.48,9.62,5.85,14.42,8.8,1.1.68,2.67,1.57,2.81,2.54.12.84-1.27,2.28-2.32,2.87-16.61,9.47-33.75,12.17-51.58,3.52-3.74-1.82-6.9-1.96-10.84.03-13.53,6.86-27.51,6.55-41.51,1.27-3.39-1.28-6.78-2.61-10.01-4.23-1.38-.69-2.92-2.02-3.3-3.36-.21-.74,1.74-2.27,2.92-3.17,5.36-4.11,11.52-7.45,16.07-12.31,11.11-11.87,15.28-25.8,9.01-41.62-3.39-8.55-9.63-14.99-16.43-20.91-3.63-3.16-3.8-4.17-.32-7.59,5.75-5.65,10.38-12.05,12.94-19.7,4.49-13.39,1.17-25.43-6.94-36.5-.94-1.28-1.82-2.59-2.73-3.88-1.03-3.51-3.3-5.77-6.8-6.81,0,0,0,0,0,0-.68-.91-1.36-1.82-2.03-2.73,1.47-.73,2.91-1.53,4.41-2.17,2.13-.92,4.31-1.72,6.46-2.57,6.8-.23,13.6-.46,20.41-.7Z"/><path class="cls-1" d="M582.79,262.38c.22.22.45.45.67.67.39.93.61,1.98,1.2,2.76,6.57,8.75,11.44,18.43,14.7,28.8,2.42,7.69,3.94,15.67,5.86,23.52-10.31,0-20.62,0-30.93.04-4.48.02-5.04.63-5.1,5.16-.03,2.38-.03,4.76,0,7.14.05,4.76.57,5.33,5.26,5.35,10.2.03,20.4,0,30.59.02,5.14.01,5.57.48,5.62,5.67q.07,7.92-7.8,7.93c-9.52,0-19.04-.02-28.55.02-4.49.02-5.04.63-5.13,5.14q-.17,9.11,8.99,9.11c10.2,0,20.4-.02,30.59.01,4.72.01,5.22.57,5.29,5.31q.12,8.28-8.12,8.28c-10.54,0-21.08-.02-31.61.02-4.5.02-5.06.62-5.14,5.13q-.17,9.13,8.97,9.13c8.04,0,16.09-.03,24.13.02,4.31.03,4.87.65,4.97,4.95q.19,8.63-8.44,8.63c-8.27,0-16.54-.03-24.81.02-4.09.03-4.72.7-4.8,4.77-.05,2.72-.05,5.44,0,8.16.08,4.02.72,4.67,4.86,4.7,7.14.05,14.28,0,21.42.04,4.32.03,4.88.65,4.98,4.94q.19,8.64-8.44,8.65c-6.12,0-12.24.08-18.36-.01-3.16-.05-4.62,1.28-4.48,4.46.09,2.15,0,4.3,0,6.46q0,14.35,8.61,25.97c4.78,6.47,9.45,13.02,14.15,19.55.66.92,1.24,1.9,1.76,2.9,1,1.9.49,3.06-1.76,3.18-1.24.06-2.49.07-3.74.07-19.49,0-38.98,0-58.47,0-.23-.23-.45-.47-.68-.7.8-1.6,1.41-3.34,2.44-4.78,6.93-9.67,14.05-19.2,20.85-28.95,1.39-2,2.26-4.71,2.43-7.15.36-5.3.15-10.64.1-15.96-.04-4.34-.64-4.97-4.9-5-7.14-.05-14.27,0-21.41-.04-4.29-.03-4.85-.65-4.94-4.97q-.19-8.61,8.46-8.61c6.12,0,12.23-.08,18.35.01,3.17.05,4.58-1.3,4.47-4.47-.1-2.94-.1-5.89,0-8.83.11-3.24-1.45-4.42-4.55-4.39-9.4.07-18.8.04-28.21,0-4.74-.02-5.26-.57-5.33-5.28q-.12-8.31,8.09-8.31c8.38,0,16.77.03,25.15-.02,4.12-.02,4.72-.69,4.84-4.74q.27-9.52-9.26-9.52c-10.19,0-20.39.02-30.58-.02-4.34-.02-4.93-.64-5.03-4.89q-.21-8.7,8.38-8.7c10.31,0,20.62.02,30.92,0,5.02-.01,5.51-.52,5.57-5.38q.12-8.89-8.87-8.88c-9.06,0-18.12.02-27.19-.01-4.8-.02-5.34-.57-5.42-5.19q-.14-8.4,8.33-8.4c9.4,0,18.8.02,28.21-.02,4.28-.02,4.86-.66,4.93-4.98.04-2.49.03-4.98,0-7.48-.06-4.55-.62-5.16-5.08-5.18-8.95-.04-17.9,0-26.85-.03-5.17-.02-6.09-1.1-4.91-6.12,3.75-15.85,8.75-31.22,18.5-44.56,1.91-2.62,4.49-4.76,6.76-7.11.69-.68,1.37-1.36,2.06-2.04.45-.23.9-.45,1.35-.68.23,0,.46,0,.69,0,.45-.23.91-.45,1.36-.68.9-.68,1.81-1.37,2.71-2.05.45-.22.91-.45,1.36-.67,1.37-.24,2.75-.48,4.12-.71.42,0,.85,0,1.27.01,2.29-.22,4.59-.45,6.88-.67.67.02,1.35.03,2.02.05,1.37.66,2.75,1.33,4.12,1.99.66.23,1.32.45,1.98.68,2.5,1.82,5,3.64,7.5,5.46,0,0,0,0,0,0,.68.45,1.37.91,2.05,1.36ZM573.28,280.12c-6.25-.05-11.17,4.37-11.34,10.18-.16,5.51,4.88,10.61,10.55,10.67,5.27.06,10.12-4.77,10.23-10.19.12-5.87-4.08-10.61-9.43-10.66Z"/><path class="cls-1" d="M327.38,285.39c-5.6,11.32-11.18,22.39-16.46,33.6-.53,1.13.35,3.46,1.3,4.66,33.28,41.93,76.44,65.72,129.91,70.35.23.02.43.05.64.08v-34.11c-50.71-6.18-88.98-31.22-115.39-74.59Z"/><path class="cls-1" d="M308.93,454.91c.18-32.49.11-64.99.06-97.48,0-1.77.14-4.01-.82-5.23-3.34-4.26-7.14-8.17-10.64-12.08-7.29,8.04-14.44,15.68-21.24,23.61-1.64,1.91-2.96,4.81-2.98,7.27-.21,27.99-.13,55.99-.13,83.98v2.02h35.87c-.09-.62-.13-1.32-.13-2.1Z"/><path class="cls-1" d="M309.07,457.07s0-.04-.01-.07h-35.87v.12c10.78.01,24.78-.02,35.88-.05Z"/><path class="cls-1" d="M395.58,95.39c-28.61-28.66-57.19-57.34-85.94-85.86-3.69-3.66-8.3-6.38-12.49-9.53h-8c-3.22,1.99-6.95,3.46-9.57,6.05-30.04,29.79-59.93,59.73-89.81,89.69-8.08,8.1-8.41,18.81-1.04,26.21,7.4,7.43,18.39,6.84,26.57-1.36,18.12-18.15,36.27-36.27,54.42-54.39.82-.82,1.84-1.45,3.45-2.7v5.94c0,45.64.01,91.29,0,136.93,0,7.78.79,15.7-.36,23.32-8.96,59.19-41.4,100.06-97.16,121.9-9.4,3.68-19.53,5.49-29.54,7.97l2.54,34.3c2.09-.87,4.49-1.49,7.31-2,62.51-11.32,107.43-46.27,135.34-103.2,12.71-25.93,17.24-53.79,17.57-82.25.53-46.49.14-92.99.14-139.49v-7.33c2.19,2.04,3.52,3.2,4.76,4.44,18.85,18.85,37.69,37.72,56.54,56.57,8.2,8.2,19.13,8.74,26.64,1.36,7.44-7.33,6.93-18.26-1.38-26.59Z"/><path class="cls-1" d="M225.64,632.64c-1.54,1.45-2.99,2.69-4.3,4.06-19.86,20.87-43.43,24.25-69.6,14.56-16.02-5.93-29.62-15.8-42.27-27.07-3.16-2.82-5.25-6.2-3.55-10.62,1.64-4.28,5.4-4.74,9.41-5.16,11.9-1.24,23.93-1.96,35.61-4.33,24.86-5.06,40.27-21.4,49.77-44.15,3.08-7.38,6.18-14.76,9.68-21.95,9.25-19.03,23.82-30.72,45.42-33.19,4.47-.51,9.16-2.91,12.87-5.64,10.05-7.41,19.61-15.48,29.4-23.25,5.67-4.5,9.34-4.41,14.47.59,6.92,6.75,13.76,13.58,20.5,20.5,5.49,5.64,5.19,10.19-.92,15.14-10.74,8.71-21.5,17.4-32.39,25.92-2.94,2.3-4.13,4.75-3.79,8.52,1.22,13.76,2.01,27.56,3.4,41.3.21,2.08,2.42,5.21,4.26,5.68,20.91,5.38,42.06,8.97,63.75,5.65,11.74-1.8,21.48-6.48,26.81-18.19,2.68-5.88,10.13-6.04,13.86-.37,13.8,21.01,12.49,43.96-11.03,58.71-13.59,8.52-28.91,11.97-44.51,13.92-12.7,1.58-25.53,2.19-38.31,3.15-3.1.23-6.02.36-4.62,4.77,6.5,20.45,16.54,38.35,36.48,48.59,16.57,8.51,34.48,9.86,52.63,8.09,10.09-.98,20.09-2.99,30.1-4.68,9.74-1.64,14.97,3.97,10.89,12.97-2.67,5.88-6.71,11.69-11.54,15.94-22.49,19.8-49.38,29.93-78.85,33.33-25.98,3-50.94-.65-73.76-14.14-22.83-13.5-35.54-34.5-42.51-59.43-5.58-19.95-6.47-40.39-5.93-60.96.06-2.16-.13-4.32-.29-6.48-.03-.42-.48-.81-1.13-1.81ZM272.32,523.32l-1.95.45c-.6,1.49-1.29,2.96-1.78,4.49-2.38,7.46-4.93,14.88-7.02,22.42-5.46,19.69-14.65,38.37-16.08,59.17-.42,6.14-1.49,12.24-1.83,18.39-1.37,24.52-1.75,49.03,5.66,72.84,9.22,29.65,28.11,49.55,59.06,56.39,36.8,8.14,70.32-.45,101.33-20.84,1.09-.72,1.9-1.88,2.84-2.84-2.18-.93-3.77-.73-5.37-.71-12.12.13-24.36,1.37-36.34.11-28.73-3.02-51.28-16.52-65.8-42.23-8.31-14.72-13.69-30.56-15.7-47.15-3.1-25.59-4.69-51.37-7.37-77.02-1.22-11.72-3.3-23.36-5.43-34.96-.55-2.99-2.77-5.68-4.22-8.5ZM136.69,623.56c-.12.48-.24.95-.36,1.43,3.1,2.02,6.07,4.29,9.32,6.03,29.37,15.69,54.27,13.46,73.27-17.4,12.52-20.34,19.88-42.84,26.94-65.44,2.04-6.52,4.07-13.04,5.94-19.61,1.39-4.88-.47-6.72-5.36-5.26-2.21.66-4.35,1.71-6.34,2.88-6.89,4.05-11.17,10.42-14.56,17.37-5.76,11.83-11.06,23.88-16.93,35.65-4.66,9.33-11.2,17.26-19.36,23.89-13.77,11.19-29.89,16.47-47.07,19.25-1.85.3-3.66.81-5.49,1.22ZM400.29,602.47c-1.69.64-2.39.74-2.88,1.12-13.83,10.8-30.18,13.31-46.82,12.59-14.57-.63-29.06-3.31-43.55-5.29-5.05-.69-6.24-.07-5.74,4.93.63,6.3,1.6,12.56,2.33,18.84.46,4.01,2.51,5.79,6.61,5.78,21.07-.06,41.97-1.69,62.31-7.51,8.51-2.44,16.76-5.81,22.99-12.54,4.52-4.89,6.4-10.57,4.76-17.92ZM315.94,503.19c-2.9-3.03-5.64-5.84-8.31-8.71-2.22-2.38-4.33-2.5-6.9-.36-4.86,4.03-9.76,8.04-14.91,11.69-3.78,2.67-4.24,4.99-.88,8.32,1.62,1.6,2.74,3.76,3.86,5.79,1.72,3.11,3.92,3.34,6.52,1.28,5.99-4.75,11.96-9.53,17.87-14.38.96-.79,1.56-2.01,2.76-3.62Z"/></g></g></g></svg>