<?xml version="1.0" encoding="UTF-8"?><svg xmlns="http://www.w3.org/2000/svg" id="Layer_2" data-name="Layer 2" viewBox="0 0 289.23 290.85"><defs><style> .cls-1 { fill: #276041; stroke: #276041; stroke-miterlimit: 10; stroke-width: 2px; } </style></defs><g id="Layer_1-2" data-name="Layer 1"><g><path class="cls-1" d="M153.86,92.9c-10.06-18.24-6.3-35.64,2.36-52.72.72-1.41,2.98-2.6,4.67-2.82,2.31-.3,3.87,1.44,4.75,3.68,4.1,10.33,8.3,20.62,12.32,30.99.82,2.13,2.08,3.29,4.16,4.1,9.97,3.89,19.89,7.93,29.85,11.84,2.56,1,4.76,2.26,4.8,5.33.04,2.89-1.99,4.31-4.34,5.44-12.25,5.87-24.96,9.28-38.58,6.34-4.36-.94-8.5-2.94-13.04-4.56-.26.24-.82.85-1.47,1.32-2.14,1.54-2.49,3.1-1.19,5.65,2.71,5.37,2.23,11,.06,16.48-1.22,3.09-3.92,4.34-6.71,3.31-2.5-.92-3.54-3.68-2.82-6.71.59-2.5.86-5.08,1.3-7.78-3.73,3.74-7.07,7.1-10.64,10.68,3.39,4.58,5.64,10.44,5.2,17.11-.11,1.64-.34,3.29-.77,4.87-.82,3-3.26,4.43-6.13,3.81-2.78-.61-4.27-2.97-3.61-6.14.96-4.68.4-8.98-2.56-12.98-2.29,2.48-4.5,4.87-6.93,7.49.66.91,1.71,2.28,2.67,3.7,4.41,6.53,6.8,13.61,5.63,21.59-.48,3.3-2.69,5.13-5.68,4.78-2.79-.33-4.51-2.47-4.21-5.78.61-6.68-1.68-12.24-5.83-17.1-3.63,3.67-7.08,7.17-10.84,10.98.32.43.96,1.31,1.62,2.18,4.78,6.4,7.52,13.46,6.94,21.58-.07,1.02-.21,2.06-.56,3.01-.93,2.6-3.18,3.74-5.93,3.16-2.46-.52-4.18-2.9-3.75-5.59,1.11-6.81-1.82-12.16-5.58-17.13-3.76,3.8-7.35,7.43-11.05,11.17,2.35,2.87,5.21,6,7.65,9.43,3.65,5.11,7.12,10.36,10.44,15.69,2.35,3.78,1.61,6.4-2.23,8.46-13.67,7.35-28.33,10.55-43.78,9.74-5.43-.28-10.81-1.38-16.21-2.2-2.69-.41-4.41-1.95-5.05-4.72-4.74-20.44-2.69-40.11,6.7-58.93,2.81-5.64,5.21-6.47,10.47-2.93,7.51,5.06,14.71,10.57,22.04,15.89.73.53,1.42,1.13,1.92,1.53,3.62-3.62,7.08-7.09,10.67-10.69-4.73-3.46-10.03-5.96-16.24-6.09-4.11-.09-6.44-1.91-6.33-5.07.11-3.03,2.48-4.92,6.27-4.96,8.07-.09,15.11,2.93,21.52,7.47,2.07,1.47,3.19,1.26,4.83-.51,2.65-2.87,5.6-5.47,8.84-8.58-5.54-3.93-10.91-6.55-17.34-6.53-3.5,0-5.45-1.46-5.74-4.28-.33-3.15,1.45-5.34,4.71-5.62,6.72-.59,12.83,1.44,18.62,4.61,2.25,1.23,4.37,2.71,6.4,3.98,2.33-2.27,4.63-4.52,7.06-6.9-3.95-2.72-8.39-3.26-13.12-2.85-3.02.26-5.11-1.49-5.54-4.22-.39-2.52,1.46-5.01,4.21-5.63.3-.07.62-.06.92-.11,6.61-1.05,12.66.68,18.41,3.79.9.49,1.77,1.03,2.29,1.33,3.43-3.41,6.74-6.69,10.56-10.48-2.71.2-5.2.18-7.6.61-3.38.6-5.94-.51-6.65-3.26-.8-3.07.7-5.59,4.06-6.54,5-1.42,10.12-1.49,14.84.65,2.91,1.32,4.75,1.03,6.49-1.45.47-.66,1.11-1.21,1.77-1.91ZM95.23,200.76c-10.85-17.47-24.66-31.28-41.8-41.85-6.18,11.04-8.9,33.22-5.53,45.19.25.87,1.48,2.01,2.34,2.08,6.35.55,12.73,1.35,19.07,1.13,8.88-.31,17.44-2.58,25.92-6.55ZM160.54,56c-2.49,7-3.11,13.59-2.15,20.22,1.42,9.69,6.3,16.8,16.47,18.72,4.39.83,8.98.91,13.47.77,3.03-.09,6.03-1.16,9.05-1.79-1.26-1.33-2.45-1.87-3.67-2.35-6.3-2.52-12.58-5.07-18.91-7.5-2.38-.91-3.88-2.4-4.8-4.81-2.57-6.72-5.3-13.37-7.98-20.04-.37-.91-.82-1.79-1.48-3.22Z"/><path class="cls-1" d="M95.36,56.16c2.19,1.94,4.22,3.54,6,5.37,3.11,3.21,2.2,7.4-2.01,8.81-21.55,7.24-43.11,14.45-64.74,21.46-1.62.52-4.4-.04-5.51-1.18-1.12-1.15-1.57-3.92-1.03-5.56,6.98-21.53,14.16-42.99,21.36-64.45,1.48-4.42,5.6-5.33,8.97-2.06,2.14,2.07,4.1,4.33,5.77,6.1,8.74-4.38,16.71-8.96,25.11-12.49,82.98-34.94,178.72,15.62,196.51,103.69,1.1,5.44,1.82,10.97,2.4,16.49.38,3.54-1.43,5.63-4.39,5.89-3.01.26-5.03-1.44-5.46-4.95-2.81-23.12-11.39-43.78-26.65-61.44-19.5-22.57-44.07-35.91-73.79-39.19-29.56-3.26-56.39,4.06-80.37,21.69-.49.36-.93.78-2.16,1.82ZM215.71,31.9c-.17-.22-.26-.41-.41-.54-.23-.2-.5-.37-.76-.53-28.91-17.33-60.02-23.19-93.23-17.6-19.37,3.26-37.09,10.72-53.27,21.87-3.24,2.23-5.29,1.96-8.2-.88-.98-.95-1.97-1.9-3.27-3.16-5.41,16.26-10.62,31.9-16.07,48.25,16.45-5.49,32.15-10.73,47.85-15.96.12-.34.24-.67.36-1.01-1.14-.89-2.38-1.67-3.39-2.69-3.08-3.08-2.93-6.12.51-8.91,31.99-26.02,68.16-34.49,108.34-25.47,7.26,1.63,14.28,4.36,21.56,6.63Z"/><path class="cls-1" d="M193.86,234.9c-2.25-2.04-4.26-3.67-6.04-5.52-3.09-3.22-2.13-7.37,2.12-8.79,21.46-7.2,42.94-14.32,64.41-21.45,2.18-.72,4.63-.97,5.88,1.15.92,1.56,1.45,4.02.92,5.67-6.98,21.53-14.15,42.99-21.35,64.45-1.47,4.37-5.66,5.27-8.99,1.96-2.11-2.1-3.95-4.48-5.44-6.19-9.11,4.56-17.06,9.22-25.49,12.66-84.86,34.67-178.11-15.86-196.43-103.8-1.13-5.43-1.81-10.97-2.4-16.49-.37-3.47,1.52-5.61,4.47-5.83,2.98-.22,4.96,1.5,5.39,5.04,2.83,23.23,11.5,43.96,26.89,61.66,19.41,22.33,43.83,35.56,73.31,38.87,29.2,3.28,55.8-3.76,79.66-20.98.82-.59,1.61-1.24,3.1-2.4ZM73.21,258.52c.43.68.5.9.65,1.01.68.47,1.36.93,2.07,1.34,32.39,18.81,66.78,23.57,103.04,14.44,15.11-3.81,29.03-10.39,41.88-19.24,3.65-2.52,5.53-2.3,8.69.8.91.9,1.85,1.77,3.13,3,5.4-16.22,10.61-31.9,16.05-48.24-16.51,5.51-32.16,10.73-48.18,16.08,1.07,1.14,1.74,1.89,2.45,2.61,4.33,4.37,4.31,6.85-.47,10.6-38.48,30.13-80.58,36.09-126.14,18.8-.91-.35-1.82-.69-3.17-1.2Z"/><path class="cls-1" d="M191.53,202.13c-3.7,1.61-6.88,3.4-10.29,4.4-7.66,2.23-14.23-.23-19.77-5.65-6.5-6.37-10.34-14.33-13.02-22.87-2.92-9.3-4.58-18.77-3.28-28.61,1.94-14.65,11.75-23.75,26.55-24.28,2.47-.09,4.98-.22,7.41.14,2.41.35,4.74,1.29,7.34,2.03.71-2.29,1.32-4.74,2.23-7.07,2.84-7.28,8.6-11.46,15.43-11.15,1.61.07,3.31.42,4.76,1.09,2.39,1.11,3.07,3.35,2.42,5.75-.66,2.48-2.52,3.59-5.13,3.55-5.9-.1-7.35,1.05-8.64,6.62,3.41-.34,6.84-.99,10.27-.98,17.78.03,28.42,9.55,29.41,27.27.89,15.98-3.26,30.91-12.69,43.98-9.04,12.52-19.83,14.16-33.01,5.78ZM154.76,156.79c.29,2.65.43,5.75.99,8.78,1.83,9.83,4.95,19.16,11.64,26.86,4.92,5.67,10.59,6.21,16.69,1.82.92-.66,1.77-1.42,2.61-2.18,3.25-2.95,5.5-2.94,8.82.08,7.98,7.26,14.67,6.66,21.06-1.95,1.1-1.48,2.12-3.06,2.98-4.69,5.48-10.42,8.32-21.45,7.52-33.29-.46-6.77-2.72-12.7-9.57-15.28-7.45-2.81-14.88-3.39-21.42,2.59-4.39,4.01-5.61,4.02-10.1-.08-6.02-5.51-12.91-5.17-20.02-3.04-6.47,1.94-9.54,6.84-10.62,13.16-.38,2.22-.37,4.51-.57,7.22Z"/><path class="cls-1" d="M70.85,181.03c-.06,2.86-2.34,4.93-5.29,4.8-2.84-.12-4.73-2.16-4.67-5.04.07-2.79,2.16-4.88,4.9-4.89,2.8-.01,5.11,2.34,5.05,5.13Z"/></g></g></svg>